<?xml version="1.0" standalone="no"?>
<!DOCTYPE svg PUBLIC "-//W3C//DTD SVG 20010904//EN"
 "http://www.w3.org/TR/2001/REC-SVG-20010904/DTD/svg10.dtd">
<svg version="1.0" xmlns="http://www.w3.org/2000/svg"
 width="512.000000pt" height="512.000000pt" viewBox="0 0 512.000000 512.000000"
 preserveAspectRatio="xMidYMid meet">
<metadata>
Created by potrace 1.11, written by Peter Selinger 2001-2013
</metadata>
<g transform="translate(0.000000,512.000000) scale(0.100000,-0.100000)"
fill="#000000" stroke="none">
<path d="M2382 4898 c-41 -14 -157 -128 -312 -308 -12 -14 -55 -61 -95 -105
-41 -44 -83 -91 -95 -105 -28 -32 -159 -178 -182 -202 -10 -10 -18 -23 -18
-30 0 -6 -3 -8 -6 -5 -4 4 -19 -9 -33 -27 -31 -39 -143 -163 -222 -247 -31
-32 -53 -59 -50 -59 3 0 -7 -11 -22 -25 -15 -14 -27 -30 -27 -36 0 -6 -4 -7
-10 -4 -5 3 -10 2 -10 -2 0 -5 -16 -26 -35 -46 -19 -20 -33 -37 -31 -37 2 0
-17 -22 -43 -49 -83 -88 -131 -141 -131 -146 0 -3 -13 -18 -30 -33 -16 -16
-30 -35 -30 -41 0 -7 -4 -9 -10 -6 -5 3 -10 2 -10 -2 0 -5 -17 -27 -37 -49
-21 -23 -65 -71 -98 -108 -33 -37 -73 -81 -88 -98 -15 -17 -51 -58 -80 -91
-29 -32 -65 -74 -82 -91 -31 -33 -141 -157 -177 -198 -47 -54 -134 -152 -145
-163 -38 -38 -98 -140 -137 -234 -130 -307 -158 -635 -77 -889 32 -99 111
-245 153 -283 10 -9 18 -19 18 -23 0 -10 109 -117 153 -149 41 -31 177 -96
212 -102 6 0 17 -4 25 -8 8 -3 47 -16 85 -28 39 -12 75 -26 81 -30 6 -5 14 -6
17 -3 3 3 12 2 19 -2 7 -5 19 -9 26 -10 6 -1 51 -14 100 -29 135 -42 198 -61
312 -94 58 -18 137 -41 175 -53 39 -12 75 -23 80 -24 6 -1 57 -16 115 -33 58
-18 114 -34 124 -36 23 -5 85 -24 106 -32 8 -3 24 -8 34 -10 11 -2 40 -11 65
-19 51 -18 128 -40 181 -54 19 -5 73 -21 120 -35 47 -15 99 -30 115 -35 17 -4
125 -36 240 -69 116 -34 219 -63 230 -65 11 -2 41 -10 67 -16 68 -18 127 -6
169 33 20 18 74 77 120 132 46 55 88 105 94 111 21 23 195 231 245 293 19 23
44 53 55 65 11 13 36 42 55 66 19 24 44 53 55 66 11 12 34 39 50 60 17 20 36
43 43 50 6 7 12 18 12 24 0 6 5 8 10 5 6 -3 10 -2 10 3 0 8 6 16 55 74 42 49
81 96 115 138 19 24 45 55 58 69 12 13 33 38 45 54 12 16 34 42 49 58 15 16
24 29 21 29 -4 0 0 6 9 12 8 7 48 54 89 103 41 50 76 92 79 95 3 3 21 25 40
50 19 24 42 52 50 61 8 8 24 27 35 40 91 111 124 150 162 195 10 12 32 39 48
60 17 20 35 42 40 48 6 6 26 31 45 56 19 25 41 52 49 60 7 8 48 57 90 110 42
52 81 100 87 105 23 22 72 91 78 113 12 38 9 104 -9 171 -9 37 -16 102 -16
155 0 95 1 103 21 176 18 63 15 135 -8 178 -21 40 -77 90 -107 94 -11 2 -24 6
-30 9 -5 4 -19 5 -30 3 -11 -2 -33 -6 -49 -8 -15 -2 -32 -9 -36 -16 -4 -6 -11
-11 -16 -10 -14 1 -74 -61 -74 -77 0 -7 -6 -24 -14 -36 -29 -47 -50 -170 -51
-307 0 -74 2 -150 6 -167 5 -26 1 -42 -20 -75 -23 -35 -123 -165 -186 -240 -8
-9 -35 -43 -61 -75 -26 -31 -52 -63 -58 -69 -6 -7 -22 -27 -36 -45 -14 -18
-29 -37 -35 -44 -54 -59 -115 -136 -115 -144 0 -6 -4 -11 -8 -11 -5 0 -33 -30
-62 -68 -30 -37 -63 -75 -74 -84 -12 -10 -16 -18 -11 -18 6 0 5 -4 -1 -8 -10
-6 -59 -63 -173 -201 -20 -25 -46 -55 -58 -68 -12 -13 -20 -23 -18 -23 5 0
-36 -49 -62 -73 -13 -11 -23 -24 -23 -29 0 -4 -15 -23 -32 -42 -18 -19 -44
-48 -58 -66 -14 -17 -34 -42 -45 -55 -11 -12 -33 -39 -50 -60 -16 -20 -38 -47
-48 -59 -11 -11 -33 -39 -50 -60 -18 -21 -44 -52 -59 -68 -16 -16 -28 -32 -28
-36 0 -4 -17 -25 -38 -48 -20 -23 -50 -58 -67 -78 -16 -21 -38 -47 -48 -59
-11 -12 -35 -42 -55 -66 -21 -24 -44 -52 -52 -61 -8 -10 -29 -35 -46 -57 -18
-21 -45 -53 -62 -72 l-30 -34 -58 17 c-33 10 -75 23 -94 28 -19 6 -37 11 -40
11 -3 0 -27 8 -55 17 -27 9 -52 18 -55 18 -3 0 -12 3 -20 6 -26 8 -194 57
-210 61 -8 2 -17 4 -20 5 -3 1 -9 3 -15 4 -5 1 -17 5 -25 9 -8 3 -42 13 -75
22 -33 9 -71 20 -85 25 -14 5 -52 16 -85 25 -33 10 -67 20 -75 23 -8 3 -25 7
-38 8 -13 2 -30 8 -37 14 -7 6 -17 10 -21 9 -5 -1 -16 1 -24 4 -20 8 -135 40
-135 38 0 -1 -17 5 -37 14 -21 8 -38 12 -38 9 0 -4 -7 -1 -15 6 -8 7 -15 10
-15 7 0 -3 -26 3 -57 14 -32 11 -60 20 -63 21 -3 0 -9 2 -15 4 -61 19 -163 48
-175 50 -8 1 -35 9 -60 17 -25 8 -85 27 -135 42 -49 15 -148 45 -220 68 -71
22 -133 42 -137 43 -5 1 -10 3 -13 4 -3 1 -8 3 -12 5 -138 38 -243 144 -294
295 -31 90 -34 340 -6 410 45 108 111 153 228 152 38 0 73 -3 79 -7 5 -3 18
-8 27 -10 21 -4 124 -30 203 -51 63 -17 66 -18 140 -39 30 -9 62 -17 70 -20 8
-2 27 -8 43 -14 15 -6 27 -8 27 -6 0 3 16 -1 36 -10 19 -8 38 -14 42 -13 4 1
14 -2 22 -5 8 -3 35 -12 60 -18 25 -7 47 -13 50 -14 31 -9 59 -17 73 -19 9 -1
20 -5 23 -9 4 -4 17 -7 29 -7 12 0 25 -3 29 -7 3 -4 14 -8 24 -9 9 -1 73 -18
142 -38 153 -45 259 -75 284 -81 24 -6 141 -40 239 -71 43 -13 83 -22 87 -19
5 3 11 1 14 -4 3 -5 23 -12 43 -17 43 -9 51 -10 58 -14 3 -1 10 -4 15 -5 6 -1
13 -4 18 -5 4 -1 11 -2 16 -1 4 1 14 -4 22 -10 8 -6 14 -8 14 -4 0 4 7 2 15
-5 8 -7 15 -10 15 -6 0 3 15 0 34 -8 19 -8 36 -12 39 -10 2 2 24 -3 48 -11 72
-26 164 -9 210 38 22 22 142 157 169 190 14 17 39 45 55 62 17 18 51 56 77 86
25 30 54 63 65 75 10 12 43 50 73 85 30 35 63 71 73 81 9 10 17 23 17 28 0 6
7 10 15 10 8 0 15 6 15 14 0 8 3 16 8 18 4 2 34 34 67 73 33 38 65 75 70 81 6
6 33 37 60 69 28 32 64 72 80 91 17 18 46 52 66 76 99 116 129 151 184 212 22
25 50 57 62 73 13 15 37 44 54 63 17 19 52 59 78 89 25 30 56 65 68 78 11 13
36 43 55 65 18 23 47 56 63 74 17 17 44 49 61 70 18 22 42 50 55 64 13 14 40
45 59 69 19 24 46 55 60 70 22 22 57 64 145 170 11 13 36 42 56 65 111 125
223 265 235 293 18 42 18 91 0 135 -14 34 -75 97 -113 116 -17 9 -89 27 -143
36 -14 3 -25 5 -25 6 0 1 -9 3 -21 5 -11 3 -60 14 -110 25 -49 12 -98 23 -109
26 -55 10 -122 26 -135 31 -8 4 -18 6 -22 5 -6 -1 -240 50 -353 78 -22 5 -85
19 -140 31 -55 11 -145 32 -200 44 -55 13 -111 26 -125 28 -14 3 -54 12 -90
20 -62 15 -278 63 -330 73 -14 3 -65 14 -115 26 -92 20 -254 56 -290 63 -11 3
-72 16 -135 31 -135 31 -212 37 -258 22z m68 -779 c3 -1 10 -3 15 -4 6 -2 13
-4 18 -5 4 -1 15 -3 25 -5 9 -1 28 -5 42 -8 14 -4 36 -9 50 -11 14 -3 35 -7
48 -10 12 -4 30 -8 41 -10 10 -2 36 -9 56 -15 21 -6 42 -8 46 -5 4 2 11 -1 14
-7 4 -5 13 -8 21 -5 7 3 16 1 20 -5 3 -6 12 -8 19 -5 7 2 18 -1 24 -7 6 -6 11
-8 11 -5 0 4 15 2 33 -3 45 -14 79 -22 100 -23 9 0 17 -3 17 -6 0 -3 10 -7 23
-8 27 -3 47 -7 67 -15 11 -4 139 -36 170 -42 7 -2 123 -28 133 -31 4 -1 8 -2
10 -4 1 -1 9 -3 17 -5 8 -1 35 -8 59 -15 25 -6 56 -13 70 -15 14 -2 26 -4 26
-5 0 -1 7 -3 15 -5 39 -10 57 -15 88 -24 18 -5 34 -10 37 -11 3 0 10 -2 17 -4
13 -4 126 -33 162 -41 31 -7 50 -40 46 -79 -3 -30 -138 -190 -214 -253 -15
-13 -113 -32 -137 -27 -8 2 -50 11 -94 19 -44 9 -87 19 -95 22 -8 3 -19 7 -25
7 -5 1 -30 6 -55 11 -25 5 -48 8 -52 7 -5 -1 -8 3 -8 9 0 5 -5 7 -11 4 -5 -4
-22 -2 -37 4 -15 6 -40 12 -57 15 -16 2 -30 5 -30 6 0 1 -7 3 -15 5 -8 2 -28
6 -45 10 -16 3 -39 8 -50 10 -11 2 -35 8 -52 14 -18 5 -33 8 -33 6 0 -3 -12 0
-27 6 -16 6 -37 13 -48 15 -49 9 -121 26 -135 31 -27 11 -45 14 -72 15 -16 1
-28 5 -28 8 0 4 -6 7 -12 7 -14 1 -27 4 -128 29 -36 9 -72 17 -80 19 -8 2 -16
4 -17 5 -2 2 -7 4 -13 5 -5 1 -13 4 -17 5 -5 1 -12 3 -18 4 -18 3 -80 18 -110
26 -16 5 -50 14 -75 21 -25 6 -52 14 -60 17 -20 7 -28 9 -40 11 -20 2 -50 41
-50 64 0 50 183 259 247 281 30 10 133 14 153 5z"/>
</g>
</svg>
